HIERARCHY
ROOT hip
{
  OFFSET 0 0 0
  CHANNELS 6 Xposition Yposition Zposition Zrotation Yrotation Xrotation
  JOINT abdomen
  {
    OFFSET 0 20.6881 -0.73152
    CHANNELS 3 Zrotation Xrotation Yrotation
    JOINT chest
    {
      OFFSET 0 11.7043 -0.48768
      CHANNELS 3 Zrotation Xrotation Yrotation
      JOINT neck
      {
        OFFSET 0 22.1894 -2.19456
        CHANNELS 3 Zrotation Xrotation Yrotation
        JOINT head
        {
          OFFSET -0.24384 7.07133 1.2192
          CHANNELS 3 Zrotation Xrotation Yrotation
          JOINT leftEye
          {
            OFFSET 4.14528 8.04674 8.04672
            CHANNELS 3 Zrotation Xrotation Yrotation
            End Site
            {
              OFFSET 1 0 0
            }
          }
          JOINT rightEye
          {
            OFFSET -3.6576 8.04674 8.04672
            CHANNELS 3 Zrotation Xrotation Yrotation
            End Site
            {
              OFFSET 1 0 0
            }
          }
        }
      }
      JOINT rCollar
      {
        OFFSET -2.68224 19.2634 -4.8768
        CHANNELS 3 Zrotation Xrotation Yrotation
        JOINT rShldr
        {
          OFFSET -8.77824 -1.95073 1.46304
          CHANNELS 3 Zrotation Xrotation Yrotation
          JOINT rForeArm
          {
            OFFSET -28.1742 -1.7115 0.48768
            CHANNELS 3 Zrotation Xrotation Yrotation
            JOINT rHand
            {
              OFFSET -22.5879 0.773209 7.07136
              CHANNELS 3 Zrotation Xrotation Yrotation
              JOINT rThumb1
              {
                OFFSET -1.2192 -0.487915 3.41376
                CHANNELS 3 Zrotation Xrotation Yrotation
                JOINT rThumb2
                {
                  OFFSET -3.37035 -0.52449 3.41376
                  CHANNELS 3 Zrotation Xrotation Yrotation
                  End Site
                  {
                    OFFSET -1.78271 -1.18214 1.43049
                  }
                }
              }
              JOINT rIndex1
              {
                OFFSET -7.75947 0.938293 5.60832
                CHANNELS 3 Zrotation Xrotation Yrotation
                JOINT rIndex2
                {
                  OFFSET -2.54057 -0.884171 1.56538
                  CHANNELS 3 Zrotation Xrotation Yrotation
                  End Site
                  {
                    OFFSET -1.62519 -0.234802 1.16502
                  }
                }
              }
              JOINT rMid1
              {
                OFFSET -8.24714 1.18213 3.41376
                CHANNELS 3 Zrotation Xrotation Yrotation
                JOINT rMid2
                {
                  OFFSET -3.10165 -0.590103 1.0647
                  CHANNELS 3 Zrotation Xrotation Yrotation
                  End Site
                  {
                    OFFSET -2.48547 -0.328903 0.83742
                  }
                }
              }
              JOINT rRing1
              {
                OFFSET -8.82822 0.546677 1.51678
                CHANNELS 3 Zrotation Xrotation Yrotation
                JOINT rRing2
                {
                  OFFSET -2.60934 -0.819778 -0.0198488
                  CHANNELS 3 Zrotation Xrotation Yrotation
                  End Site
                  {
                    OFFSET -2.33842 -0.294052 0.168128
                  }
                }
              }
              JOINT rPinky1
              {
                OFFSET -8.27202 -0.0477905 -0.4584
                CHANNELS 3 Zrotation Xrotation Yrotation
                JOINT rPinky2
                {
                  OFFSET -1.82734 -0.647385 -0.700984
                  CHANNELS 3 Zrotation Xrotation Yrotation
                  End Site
                  {
                    OFFSET -1.69225 -0.51767 -0.607171
                  }
                }
              }
            }
          }
        }
      }
      JOINT lCollar
      {
        OFFSET 2.68224 19.2634 -4.8768
        CHANNELS 3 Zrotation Xrotation Yrotation
        JOINT lShldr
        {
          OFFSET 8.77824 -1.95073 1.46304
          CHANNELS 3 Zrotation Xrotation Yrotation
          JOINT lForeArm
          {
            OFFSET 28.1742 -1.7115 0.48768
            CHANNELS 3 Zrotation Xrotation Yrotation
            JOINT lHand
            {
              OFFSET 22.5879 0.773209 7.07136
              CHANNELS 3 Zrotation Xrotation Yrotation
              JOINT lThumb1
              {
                OFFSET 1.2192 -0.487915 3.41376
                CHANNELS 3 Zrotation Xrotation Yrotation
                JOINT lThumb2
                {
                  OFFSET 3.37035 -0.52449 3.41376
                  CHANNELS 3 Zrotation Xrotation Yrotation
                  End Site
                  {
                    OFFSET 1.78271 -1.18214 1.43049
                  }
                }
              }
              JOINT lIndex1
              {
                OFFSET 7.75947 0.938293 5.60832
                CHANNELS 3 Zrotation Xrotation Yrotation
                JOINT lIndex2
                {
                  OFFSET 2.54057 -0.884171 1.56538
                  CHANNELS 3 Zrotation Xrotation Yrotation
                  End Site
                  {
                    OFFSET 1.62519 -0.234802 1.16502
                  }
                }
              }
              JOINT lMid1
              {
                OFFSET 8.24714 1.18213 3.41376
                CHANNELS 3 Zrotation Xrotation Yrotation
                JOINT lMid2
                {
                  OFFSET 3.10165 -0.590103 1.0647
                  CHANNELS 3 Zrotation Xrotation Yrotation
                  End Site
                  {
                    OFFSET 2.48547 -0.328903 0.83742
                  }
                }
              }
              JOINT lRing1
              {
                OFFSET 8.82822 0.546677 1.51678
                CHANNELS 3 Zrotation Xrotation Yrotation
                JOINT lRing2
                {
                  OFFSET 2.60934 -0.819778 -0.0198488
                  CHANNELS 3 Zrotation Xrotation Yrotation
                  End Site
                  {
                    OFFSET 2.33842 -0.294052 0.168128
                  }
                }
              }
              JOINT lPinky1
              {
                OFFSET 8.27202 -0.0477905 -0.4584
                CHANNELS 3 Zrotation Xrotation Yrotation
                JOINT lPinky2
                {
                  OFFSET 1.82734 -0.647385 -0.700984
                  CHANNELS 3 Zrotation Xrotation Yrotation
                  End Site
                  {
                    OFFSET 1.69225 -0.51767 -0.607171
                  }
                }
              }
            }
          }
        }
      }
    }
  }
  JOINT rButtock
  {
    OFFSET -8.77824 4.35084 1.2192
    CHANNELS 3 Zrotation Xrotation Yrotation
    JOINT rThigh
    {
      OFFSET 0 -1.70687 -2.19456
      CHANNELS 3 Zrotation Xrotation Yrotation
      JOINT rShin
      {
        OFFSET 0 -36.8199 0.73152
        CHANNELS 3 Zrotation Xrotation Yrotation
        JOINT rFoot
        {
          OFFSET 0.73152 -45.1104 -5.12064
          CHANNELS 3 Zrotation Xrotation Yrotation
          End Site
          {
            OFFSET -1.1221 -3.69964 12.103
          }
        }
      }
    }
  }
  JOINT lButtock
  {
    OFFSET 8.77824 4.35084 1.2192
    CHANNELS 3 Zrotation Xrotation Yrotation
    JOINT lThigh
    {
      OFFSET 0 -1.70687 -2.19456
      CHANNELS 3 Zrotation Xrotation Yrotation
      JOINT lShin
      {
        OFFSET 0 -36.8199 0.73152
        CHANNELS 3 Zrotation Xrotation Yrotation
        JOINT lFoot
        {
          OFFSET -0.73152 -45.1104 -5.12064
          CHANNELS 3 Zrotation Xrotation Yrotation
          End Site
          {
            OFFSET 1.1221 -3.69964 12.103
          }
        }
      }
    }
  }
}
MOTION
Frames:	7
Frame Time:	0.03333
0.0 0.0 0.0 0.0 0.0 0.0 0.0 0.0 0.0 0.0 0.0 0.0 0.0 0.0 0.0 0.0 0.0 0.0 0.0 0.0 0.0 0.0 0.0 0.0 0.0 0.0 0.0 0.0 0.0 0.0 0.0 0.0 0.0 0.0 0.0 0.0 0.0 0.0 0.0 0.0 0.0 0.0 0.0 0.0 0.0 0.0 0.0 0.0 0.0 0.0 0.0 0.0 0.0 0.0 0.0 0.0 0.0 0.0 0.0 0.0 0.0 0.0 0.0 0.0 0.0 0.0 0.0 0.0 0.0 0.0 0.0 0.0 0.0 0.0 0.0 0.0 0.0 0.0 0.0 0.0 0.0 0.0 0.0 0.0 0.0 0.0 0.0 0.0 0.0 0.0 0.0 0.0 0.0 0.0 0.0 0.0 0.0 0.0 0.0 0.0 0.0 0.0 0.0 0.0 0.0 0.0 0.0 0.0 0.0 0.0 0.0 0.0 0.0 0.0 0.0 0.0 0.0 0.0 0.0 0.0 0.0 0.0 0.0 0.0 0.0 0.0 0.0 0.0 0.0 0.0 0.0 0.0
0.3153 65.1351 -0.1801 179.025436 60.455897 177.58385 1.76018 0.911677 -75.240928 -12.981383 -2.916071 94.008917 12.397113 -11.87294 103.993954 -28.371111 -18.398505 -49.779181 178.127 -0.864987 49.573706 58.874261 15.813412 27.65155 -56.421744 47.366031 139.739689 6.91052 16.141572 8.555303 5.59629 -32.086173 -147.797168 32.322267 25.280024 -126.405411 178.624878 12.9958 57.26663 101.203274 7.550869 -159.825907 112.702259 -75.39249 69.602255 3.569272 1.923548 165.535634 -71.775117 77.991436 139.828 -27.390845 -64.388215 -162.086342 172.635005 10.652774 -45.619334 103.986123 10.641412 -121.437462 -3.96275 10.955367 -83.097113 -84.015114 -47.99131 -85.408804 -42.321489 45.966735 -43.15313 -16.086939 17.325581 -2.275602 -177.065059 7.92883 20.620356 -173.632042 -0.059205 -51.372987 -6.347489 -20.811106 -56.387625 -54.35301 15.176582 -20.697534 -96.241329 -16.593689 -130.197418 -151.718459 13.826945 -162.85937 -6.236714 -2.438666 -118.914823 158.397001 21.53285 -29.139579 -28.126847 10.730833 4.583189 -29.47836 -16.308115 76.070416 11.981241 -16.691022 40.970835 150.686761 69.754738 -141.00583 63.914172 35.978774 106.046612 3.060813 68.08319 176.701246 5.874226 -2.364056 83.912663 -74.607203 7.948065 102.584324 -5.781394 -64.596264 -2.037595 10.501115 66.246272 -9.545123 -7.183226 -0.852887 -89.999882 72.601198 57.369124 -82.729998
2.6951 59.462 0.32820000000000005 33.434932 -80.249052 -35.628062 -14.818596 27.699848 6.45585 7.357528 -19.855208 6.377213 10.057232 31.006064 48.006375 -40.936472 -15.407199 -89.44517 -41.735487 -4.160072 10.884525 -19.973642 -1.652161 9.362252 -151.947888 -1.904535 166.388087 -101.276264 87.399127 90.637744 45.101236 80.526824 21.740752 -6.092994 28.421447 -1.563441 -15.854239 20.790422 17.202445 -13.134721 -64.438993 -51.587641 -146.300687 42.612389 115.975368 -109.210945 -68.655448 -145.280021 13.009648 48.161315 -16.179151 -169.54799 48.972506 94.380047 -157.572353 13.25915 -148.779553 -80.082432 -39.343598 -100.748424 -158.844077 -21.265562 -177.373081 -126.934882 -63.379525 -95.151359 -8.847326 -13.516134 -13.188698 -118.166437 71.594787 50.737027 176.28905 53.686082 -64.489961 162.902265 24.241926 -129.58206 6.520145 11.108813 -17.906866 140.553864 -15.04217 174.838768 14.800762 25.133501 -14.36528 -10.576122 18.690147 -19.314559 20.809328 -16.460824 -44.70736 176.388453 16.059341 161.417631 -171.822908 -4.320922 -177.127655 52.833613 -12.153778 -16.790331 15.50991 17.291413 -37.250046 99.1266 58.472787 105.178276 71.429589 32.773251 8.229661 -134.960407 -16.04668 0.0 73.984643 34.573102 -167.701985 162.157704 -0.259922 -83.872974 -120.651252 38.331994 -7.435749 148.048674 27.991408 -126.962244 -17.335422 -56.423472 40.738718 3.593279 32.031343 116.064919
4.4259 62.950300000000006 1.7246000000000001 61.768335 -79.406626 -60.882711 -24.83306 13.549723 -180.0 -17.166969 6.87208 -175.931035 -16.097368 45.051099 -46.404014 54.570137 -27.171738 29.074404 140.690997 -7.241592 20.094208 -19.617373 -3.79064 21.671528 -14.445036 42.836371 16.924883 57.793189 -42.109474 53.150853 -179.133566 -6.371985 99.435032 164.086384 -24.297866 143.937929 83.028186 -42.860168 22.781587 -155.088454 -20.631991 82.343347 -2.497423 -57.739568 -6.563453 15.961237 -12.397377 -36.768825 -175.827178 22.461629 -172.340994 160.545397 -0.287572 -149.637121 6.542355 6.970825 0.755799 -176.855212 -29.310646 151.562746 -22.483675 -35.236166 29.103413 20.111175 4.014872 -56.123475 162.513435 -6.687881 -156.027341 -108.29109 -19.021424 -166.305393 12.404631 -15.696784 -71.746476 -1.024673 -36.083013 0.297286 0.640253 -3.169577 -0.662903 126.375468 -59.449306 152.064599 2.070236 -29.865469 1.644873 5.761934 77.829694 -9.883103 97.655134 -46.821116 156.199402 43.43956 -85.84544 179.910099 9.134867 62.929477 -7.691109 146.450281 -7.367831 -158.418124 -175.411569 50.855326 161.111386 162.410935 40.322706 -162.669522 12.117052 -1.855405 -0.0 -70.854881 -50.754769 -66.703146 -68.275923 56.782264 -30.243463 -6.143346 63.137471 101.074778 -176.67756 25.949943 -5.302176 -159.937135 23.872472 -42.06387 -32.747258 44.919146 143.326476 -17.615508 8.878204 -64.691106
5.6186 61.6656 2.1886 84.567578 -81.413196 -82.12507 -18.922784 8.491002 -92.832405 0.724785 12.444437 83.709428 6.933723 43.731307 103.197957 -63.460966 20.601346 -109.873059 128.931099 13.134147 -27.098112 -60.555556 21.150888 -35.467069 -58.914848 50.419216 62.40942 -177.525162 -2.613481 132.5921 136.161591 -80.194029 59.085743 159.522052 -29.39523 143.32668 -177.40581 -32.128154 93.804627 -26.286656 21.211183 10.987598 -148.435367 36.423201 109.07235 -132.930714 39.248614 61.663573 -141.208854 -59.116912 168.954628 39.873886 5.657936 29.551627 11.663588 -0.030502 -1.468493 -4.292574 25.573063 41.162294 9.333131 -51.420777 38.147448 -67.740095 -4.574972 -38.098906 84.152978 -74.134834 100.195483 -83.411454 28.443107 98.389291 17.16917 27.228436 -97.24869 -2.801886 -26.297296 2.015292 -91.190344 -36.640276 -51.056787 -173.938323 38.819735 -66.584057 24.216164 -62.730176 35.385155 -24.773684 -44.459808 64.526662 -29.48243 -6.360899 16.341396 67.054113 -57.380162 -36.607484 4.349335 -2.066692 -11.121334 132.632178 -36.640977 169.005671 78.900551 -42.222673 19.528143 15.464742 -35.904774 103.222288 5.473414 -8.229048 -6.217103 -54.065637 -55.062295 50.634135 82.571687 6.723769 98.182209 -106.076317 16.177044 -177.711491 45.253879 44.851906 -3.432997 -35.760921 -39.59174 -113.445831 -59.700075 -4.393925 -102.879777 -90.091086 -36.833353 175.334215
6.766 58.143100000000004 2.9591 89.354439 -80.129214 -88.793599 -20.136282 6.804939 180.0 -10.552335 -2.521649 169.345715 -2.398273 30.961707 78.393804 -51.332979 -10.421638 -97.927126 134.553349 22.932922 -51.687132 -129.986783 -26.907889 -54.304153 -161.424402 -10.362382 141.287194 -25.948472 2.825426 -11.697369 175.67607 34.074755 -138.205212 -12.089621 54.020955 9.357509 -64.221158 46.639177 34.823767 -87.860251 12.233028 45.934936 -160.466552 -40.616635 140.274097 29.781563 23.468812 -48.416078 -0.999041 44.936794 17.644138 21.310852 61.71095 -73.722658 22.468248 6.659378 -0.305275 -11.574824 -1.612655 7.73054 -86.101389 28.577323 -116.774461 94.440423 -4.176958 5.397727 150.934947 -42.611963 171.636141 140.028376 -64.647919 87.000382 171.063989 -78.13363 83.926659 2.500878 -12.380007 5.847118 6.183938 -9.447813 -23.94067 159.889604 26.887254 -167.017832 13.61404 -53.918144 34.457963 37.174713 -64.310691 124.699655 -59.166029 -76.652999 -13.566869 -17.523078 19.613133 -76.202303 -35.493552 -81.372923 -36.374004 67.519758 -48.340281 77.802068 96.224264 -49.580534 37.034043 -11.745841 -33.675606 83.567626 -6.449582 1.36429 -9.912018 -40.971734 -60.056097 -37.355716 -7.657599 64.588425 29.792902 -74.669792 -1.246217 19.305441 1.63521 26.426127 -2.611338 12.880422 -18.954337 4.493393 -6.929911 55.102404 173.196208 -72.25825 -32.369968 -167.582168
8.0924 56.41929999999999 4.4398 91.705467 -79.791167 -91.794692 -15.204355 9.357547 -97.29362 0.537821 3.95852 88.916154 -11.004713 19.215082 33.369786 -16.590156 -35.240905 -57.949989 47.187881 -20.861855 -45.710096 -34.750416 25.793375 -72.389805 -103.901556 45.467478 101.218773 119.613473 -44.646856 127.93562 147.225977 -6.074534 116.006925 170.405288 -0.534019 155.888111 -90.124388 44.681179 45.341167 -26.264148 -17.839933 42.053122 26.978262 -41.063068 -13.680395 17.576797 16.820037 33.946736 -22.937193 53.577256 32.755186 -172.742103 -12.698011 -168.236731 -115.645978 3.114289 -178.59409 -119.280277 -25.707731 177.723501 -31.439953 24.271305 -128.699418 -7.66298 17.761797 166.643193 156.445456 -33.228767 -179.560413 -78.739965 84.17632 136.022108 69.226841 2.843543 -152.020503 -98.578607 -77.192617 -75.414889 86.883994 12.929675 -39.828844 61.453094 -72.646991 -160.732752 166.086597 -40.305425 -137.784384 84.585244 77.978593 -1.754979 151.982296 -8.355748 -137.242966 -48.731019 19.938826 33.636816 165.024508 -8.437174 -150.020564 -115.29416 -65.786411 -125.046229 -144.133621 84.977651 152.561446 37.786149 -20.095028 -64.165957 16.436786 6.670095 17.790221 -82.128092 -34.288652 -0.0 57.280211 33.712319 -103.502364 114.525014 8.807307 -30.976681 -39.027303 21.055791 -33.120043 47.009982 18.450025 -180.0 31.852481 -29.485913 -172.358095 61.484307 53.2979 23.103424
